<?xml version="1.0" standalone="no"?>
<!DOCTYPE svg PUBLIC "-//W3C//DTD SVG 20010904//EN"
 "http://www.w3.org/TR/2001/REC-SVG-20010904/DTD/svg10.dtd">
<svg version="1.0" xmlns="http://www.w3.org/2000/svg"
 width="672.000000pt" height="672.000000pt" viewBox="0 0 672.000000 672.000000"
 preserveAspectRatio="xMidYMid meet">
<metadata>
Created by potrace 1.14, written by Peter Selinger 2001-2017
</metadata>
<g transform="translate(0.000000,672.000000) scale(0.100000,-0.100000)"
fill="#000000" stroke="none">
<path d="M3159 6716 c-2 -2 -35 -7 -73 -10 -38 -3 -83 -8 -100 -11 -17 -2 -47
-7 -66 -10 -37 -5 -53 -8 -140 -26 -30 -7 -61 -12 -67 -12 -7 0 -13 -4 -13 -9
0 -5 -4 -7 -8 -4 -5 3 -53 -8 -108 -24 -111 -33 -191 -61 -319 -113 -111 -45
-425 -218 -490 -270 -5 -4 -44 -33 -85 -64 -41 -31 -100 -76 -130 -101 -80
-66 -328 -320 -335 -343 -4 -10 -10 -19 -14 -19 -16 0 -165 -211 -260 -370
-28 -47 -134 -260 -161 -325 -33 -78 -74 -201 -104 -306 -42 -153 -48 -179
-60 -250 -3 -19 -8 -45 -11 -58 -2 -13 -7 -49 -10 -80 -3 -31 -9 -83 -14 -116
-13 -91 -10 -437 5 -545 7 -52 16 -115 19 -140 15 -108 85 -403 106 -441 5
-11 7 -19 4 -19 -2 0 6 -25 20 -56 14 -31 25 -60 25 -64 0 -4 11 -33 25 -64
14 -31 25 -58 26 -61 1 -6 78 -156 118 -230 67 -123 256 -386 340 -474 9 -10
37 -40 62 -67 251 -268 574 -494 913 -638 102 -44 350 -131 396 -140 14 -2 54
-12 90 -21 36 -9 81 -18 100 -20 19 -3 46 -8 60 -11 42 -10 53 -11 132 -19 43
-3 92 -9 110 -11 47 -7 308 -7 408 0 126 9 190 17 260 31 13 2 40 7 60 10 52
8 66 11 160 35 112 28 330 100 355 117 11 7 26 13 34 13 16 0 239 109 316 154
140 82 226 143 490 346 46 36 256 251 307 315 57 72 178 249 178 260 0 4 9 19
19 33 31 44 139 260 180 362 66 161 133 376 157 500 3 14 8 34 11 45 4 11 7
29 8 40 5 50 18 141 21 147 25 41 24 591 -1 728 -2 14 -7 43 -10 65 -8 59 -15
95 -26 145 -6 25 -12 52 -14 61 -11 52 -52 193 -77 263 -16 44 -30 86 -32 91
-2 6 -8 21 -13 35 -6 14 -19 45 -29 70 -24 62 -143 291 -160 311 -8 8 -14 20
-14 25 0 5 -14 29 -30 54 -17 25 -36 53 -43 64 -133 202 -396 487 -572 619 -5
4 -26 21 -45 37 -19 16 -38 30 -42 30 -4 0 -13 6 -20 13 -14 15 -149 103 -233
153 -102 61 -247 130 -410 195 -38 15 -140 51 -155 55 -8 2 -42 11 -75 20 -33
9 -68 18 -77 20 -10 2 -26 6 -35 8 -75 19 -199 42 -278 52 -22 2 -53 7 -70 9
-36 7 -481 16 -486 11z"/>
<path d="M2385 1030 c-54 -8 -96 -32 -134 -76 -53 -59 -65 -104 -65 -224 0
-102 24 -165 83 -220 89 -83 238 -79 326 8 25 24 49 68 63 112 7 22 7 201 -1
227 -7 27 -37 83 -52 98 -36 34 -65 57 -76 59 -8 2 -21 6 -29 9 -26 10 -74 13
-115 7z m143 -100 c61 -59 85 -181 54 -285 -18 -63 -47 -100 -95 -119 -83 -35
-159 -5 -206 82 -33 61 -29 244 5 273 8 6 14 17 14 24 0 12 36 41 70 57 8 4
39 6 68 6 47 -1 58 -6 90 -38z"/>
<path d="M3005 1032 c-114 -19 -195 -118 -201 -244 -2 -32 -6 -62 -9 -68 -3
-5 -2 -10 4 -10 6 0 8 -7 5 -14 -3 -8 2 -40 11 -71 52 -180 267 -236 397 -102
26 26 47 51 46 55 -1 4 5 21 12 37 7 17 14 69 15 117 2 72 -2 97 -21 145 -23
57 -79 121 -119 137 -28 11 -116 22 -140 18z m121 -84 c18 -10 43 -40 57 -67
21 -42 25 -63 25 -135 0 -102 -17 -154 -64 -196 -93 -81 -235 -26 -260 100
-27 140 11 271 89 306 42 18 115 15 153 -8z"/>
<path d="M4560 1032 c-45 -6 -115 -44 -147 -81 -18 -20 -33 -40 -33 -46 0 -5
-7 -23 -16 -40 -12 -22 -16 -56 -16 -125 0 -87 2 -100 32 -157 50 -97 130
-140 246 -130 82 6 137 34 145 73 9 46 0 58 -25 35 -55 -52 -175 -62 -241 -21
-59 36 -84 101 -81 209 4 146 53 209 171 219 58 4 69 2 119 -27 31 -17 57 -31
59 -31 1 0 1 18 -1 39 -4 36 -8 41 -50 59 -47 20 -116 30 -162 24z"/>
<path d="M1079 1015 c-1 -14 -1 -495 0 -527 l1 -28 123 0 c97 0 130 4 162 19
37 17 88 61 70 61 -4 0 -2 6 4 14 18 22 17 97 -2 136 -15 31 -67 75 -78 67 -2
-2 13 13 33 33 35 34 37 39 35 97 -2 69 -19 95 -77 120 -42 18 -270 25 -271 8z
m219 -60 c43 -8 65 -43 59 -91 -8 -56 -35 -71 -128 -73 l-79 -2 0 84 c0 46 2
86 5 88 5 6 98 2 143 -6z m26 -239 c41 -17 48 -28 52 -79 7 -85 -35 -116 -158
-115 l-68 0 0 104 0 104 70 0 c39 0 86 -6 104 -14z"/>
<path d="M1621 920 c0 -58 0 -109 -1 -115 -1 -5 -2 -85 -1 -177 l1 -168 35 0
c21 0 35 5 36 13 0 6 0 66 0 133 l0 121 130 2 c128 2 129 2 130 -21 1 -13 2
-70 3 -128 3 -135 1 -127 39 -122 l32 4 0 271 c0 150 -3 277 -7 283 -4 6 -20
10 -35 9 l-28 -1 -1 -115 -1 -114 -132 -2 -132 -2 1 47 c1 26 1 79 1 117 l-1
71 -35 -1 -36 0 2 -105z"/>
<path d="M3447 1016 c-2 -6 -3 -132 -3 -281 l1 -270 35 -3 35 -3 -1 236 c0
129 2 235 5 235 3 0 21 -44 39 -98 18 -53 47 -135 64 -182 l31 -85 37 3 c38 4
41 8 66 97 3 9 37 101 70 190 8 22 17 48 19 59 12 52 15 9 15 -212 l0 -242 35
0 35 0 0 279 c0 305 4 287 -64 286 -39 0 -40 -1 -64 -60 -13 -33 -25 -71 -28
-84 -3 -13 -11 -35 -18 -50 -7 -14 -23 -57 -36 -96 -12 -38 -26 -74 -30 -78
-6 -7 -33 56 -45 103 -1 3 -4 12 -7 20 -16 42 -21 56 -24 65 -3 15 -58 169
-61 174 -6 9 -103 7 -106 -3z"/>
<path d="M4123 1021 c-4 -3 -8 -130 -8 -281 l1 -275 36 -3 37 -3 0 280 c-1
155 -4 281 -7 282 -40 5 -52 5 -59 0z"/>
<path d="M5071 1020 c-8 -4 -72 -167 -85 -215 -2 -5 -6 -17 -9 -25 -4 -8 -22
-59 -41 -113 -18 -54 -36 -101 -40 -104 -3 -4 -6 -16 -6 -27 0 -12 -7 -31 -15
-42 -18 -26 -11 -34 31 -34 31 0 33 3 55 68 12 37 26 69 30 72 4 3 59 5 120 5
l113 -1 25 -72 25 -72 38 0 c37 0 37 1 28 28 -6 15 -14 36 -19 47 -5 11 -47
125 -93 254 l-83 235 -32 1 c-18 1 -37 -1 -42 -5z m83 -210 c25 -73 44 -136
42 -138 -6 -5 -176 -5 -182 1 -2 2 0 17 6 33 6 16 11 29 10 29 0 0 13 38 30
85 18 47 34 95 37 108 3 13 7 22 8 20 2 -2 23 -64 49 -138z"/>
<path d="M5474 1018 c-5 -7 -6 -95 -5 -395 l1 -163 34 0 35 0 -1 230 c-1 127
2 233 5 237 4 3 7 4 7 2 0 -5 84 -246 99 -282 6 -15 14 -39 17 -53 6 -22 11
-25 46 -22 l40 3 32 95 c18 52 35 102 38 110 3 8 16 44 29 80 12 36 25 68 28
72 3 4 6 -100 6 -230 l0 -237 35 -3 35 -3 0 281 c0 242 -2 280 -15 281 -8 1
-33 2 -54 2 l-39 1 -49 -139 c-27 -77 -51 -147 -55 -155 -3 -8 -7 -18 -8 -22
-2 -5 -4 -10 -5 -13 -4 -7 -7 -23 -9 -37 -1 -15 -24 5 -27 24 -4 22 -114 331
-120 337 -8 8 -95 7 -100 -1z"/>
</g>
</svg>
