<svg width="60" height="60" viewBox="0 0 60 60" fill="none" xmlns="http://www.w3.org/2000/svg">
<path d="M30 5C25.0555 5 20.222 6.46622 16.1108 9.21326C11.9995 11.9603 8.79521 15.8648 6.90302 20.4329C5.01083 25.0011 4.51575 30.0277 5.48038 34.8773C6.44501 39.7268 8.82603 44.1814 12.3223 47.6777C15.8187 51.174 20.2732 53.555 25.1228 54.5196C29.9723 55.4843 34.9989 54.9892 39.5671 53.097C44.1353 51.2048 48.0397 48.0005 50.7867 43.8893C53.5338 39.778 55 34.9445 55 30C55 26.717 54.3534 23.4661 53.097 20.4329C51.8406 17.3998 49.9991 14.6438 47.6777 12.3223C45.3562 10.0009 42.6002 8.15938 39.5671 6.90301C36.534 5.64664 33.2831 5 30 5V5ZM30 50C26.0444 50 22.1776 48.827 18.8886 46.6294C15.5996 44.4318 13.0362 41.3082 11.5224 37.6537C10.0087 33.9991 9.6126 29.9778 10.3843 26.0982C11.156 22.2186 13.0608 18.6549 15.8579 15.8579C18.6549 13.0608 22.2186 11.156 26.0982 10.3843C29.9778 9.61259 33.9992 10.0087 37.6537 11.5224C41.3082 13.0362 44.4318 15.5996 46.6294 18.8886C48.827 22.1776 50 26.0444 50 30C50 35.3043 47.8929 40.3914 44.1421 44.1421C40.3914 47.8929 35.3043 50 30 50V50Z" fill="url(#paint0_linear_93_204)"/>
<circle cx="29.82" cy="29.8201" r="20.22" fill="#253250"/>
<path d="M30 22.5C31.3807 22.5 32.5 21.3807 32.5 20C32.5 18.6193 31.3807 17.5 30 17.5C28.6193 17.5 27.5 18.6193 27.5 20C27.5 21.3807 28.6193 22.5 30 22.5Z" fill="white"/>
<path d="M30 25C29.337 25 28.7011 25.2634 28.2322 25.7322C27.7634 26.2011 27.5 26.837 27.5 27.5V40C27.5 40.663 27.7634 41.2989 28.2322 41.7678C28.7011 42.2366 29.337 42.5 30 42.5C30.663 42.5 31.2989 42.2366 31.7678 41.7678C32.2366 41.2989 32.5 40.663 32.5 40V27.5C32.5 26.837 32.2366 26.2011 31.7678 25.7322C31.2989 25.2634 30.663 25 30 25Z" fill="white"/>
<defs>
<linearGradient id="paint0_linear_93_204" x1="30" y1="5" x2="30" y2="55" gradientUnits="userSpaceOnUse">
<stop stop-color="#32AD84"/>
<stop offset="0.4875" stop-color="#095969"/>
<stop offset="1" stop-color="#008A7D"/>
</linearGradient>
</defs>
</svg>
